<?xml version="1.0" ?><svg id="Multicolor" viewBox="0 0 100 112" xmlns="http://www.w3.org/2000/svg"><defs><style>.cls-1{fill:#fff0ed;}.cls-2{fill:#45413c;fill-opacity:0.15;}.cls-3{fill:#ff6242;}.cls-4{fill:#ff8a14;}.cls-5{fill:#ffe500;}.cls-6{fill:#6dd627;}.cls-7{fill:#00b8f0;}.cls-8{fill:#9f5ae5;}.cls-9{fill:none;stroke:#45413c;stroke-linecap:round;stroke-linejoin:round;}</style></defs><title/><g id="Scene"><circle class="cls-1" cx="50" cy="56" r="40"/><ellipse class="cls-2" cx="50" cy="87.73" rx="15.52" ry="1.73"/><path class="cls-3" d="M37.87,27.53c-6.51,0-9.12,4.64-10.06,8.5H31.6c1.75-2.64,5-3.86,8.14,0H47.2C44.53,31,41.49,27.53,37.87,27.53Z"/><path class="cls-4" d="M43.76,44.78h7.32A81.8,81.8,0,0,0,47.2,36H39.75C41.16,37.78,42.55,40.58,43.76,44.78Z"/><path class="cls-4" d="M27.33,39.58a.58.58,0,0,0,.54.59l1.83.12a.58.58,0,0,0,.62-.54A7.89,7.89,0,0,1,31.6,36H27.81A16.7,16.7,0,0,0,27.33,39.58Z"/><path class="cls-5" d="M44.83,49.13l-1.93,4.4H54.27c-1-2.9-2.08-5.89-3.19-8.75H43.76C44.13,46.09,44.49,47.54,44.83,49.13Z"/><path class="cls-6" d="M39,62.28h9.36l.32-.64.22.64h8.53c-1.06-2.66-2.11-5.66-3.21-8.75H42.89Z"/><path class="cls-7" d="M52.32,71h9.84c-1.61-1.7-3.14-4.87-4.68-8.75H48.94A84.17,84.17,0,0,0,52.32,71Z"/><path class="cls-7" d="M74.19,68.3a.58.58,0,0,0-.63-.6l-1.91.17a.58.58,0,0,0-.52.49,4.36,4.36,0,0,1-2,2.67h4.71A15.83,15.83,0,0,0,74.19,68.3Z"/><polygon class="cls-7" points="39.05 62.28 35.2 71.03 44.06 71.03 48.41 62.28 39.05 62.28"/><path class="cls-8" d="M64,79.64c6.69,0,9-5.07,9.79-8.62H69.12a8,8,0,0,1-4.41,1.36A3.63,3.63,0,0,1,62.16,71H52.32C55.11,76.91,58.25,79.64,64,79.64Z"/><path class="cls-8" d="M32.06,78.16a.58.58,0,0,0,.52.83h7.16a.58.58,0,0,0,.52-.32L44.06,71H35.2Z"/><path class="cls-9" d="M29.71,40.29a.58.58,0,0,0,.62-.54c.46-6.43,9.78-13.13,14.5,9.38l-12.76,29a.58.58,0,0,0,.52.83h7.16a.58.58,0,0,0,.52-.32l8.47-17c4.18,12.43,7,18,15.31,18,8.84,0,10.07-8.86,10.16-11.35a.58.58,0,0,0-.63-.6l-1.91.17a.58.58,0,0,0-.52.49c-.29,1.93-3.17,4-6.42,4-8.46,0-13.82-44.85-26.84-44.85-8.8,0-10.47,8.48-10.53,12a.58.58,0,0,0,.54.59Z"/></g></svg>